<?xml version="1.0" standalone="no"?>
<!DOCTYPE svg PUBLIC "-//W3C//DTD SVG 20010904//EN"
 "http://www.w3.org/TR/2001/REC-SVG-20010904/DTD/svg10.dtd">
<svg version="1.0" xmlns="http://www.w3.org/2000/svg"
 width="876.000000pt" height="876.000000pt" viewBox="0 0 876.000000 876.000000"
 preserveAspectRatio="xMidYMid meet">
<metadata>
Created by potrace 1.14, written by Peter Selinger 2001-2017
</metadata>
<g transform="translate(0.000000,876.000000) scale(0.100000,-0.100000)"
fill="#000000" stroke="none">
<path d="M30 7139 c-1 -116 -1 -5616 0 -5629 0 -7 281 -9 838 -8 l837 3 0
1893 c0 1040 2 1892 5 1892 5 0 31 -47 140 -255 35 -66 81 -154 103 -195 22
-41 59 -111 82 -155 23 -44 52 -96 63 -115 11 -19 33 -60 49 -90 15 -30 31
-56 36 -58 4 -2 7 -7 7 -11 0 -4 40 -81 90 -171 49 -90 90 -167 90 -172 0 -4
3 -8 8 -8 4 0 15 -17 24 -37 10 -21 32 -63 49 -93 17 -30 44 -77 59 -105 15
-27 98 -177 184 -332 86 -155 156 -287 156 -293 0 -5 3 -10 8 -10 4 0 12 -10
18 -23 20 -43 118 -222 123 -227 3 -3 17 -25 29 -50 45 -86 100 -185 131 -238
17 -29 31 -55 31 -57 0 -2 15 -30 34 -62 18 -32 49 -87 68 -123 43 -78 78
-143 128 -230 20 -36 39 -72 43 -80 4 -8 18 -33 30 -55 13 -22 39 -69 59 -105
59 -108 90 -163 108 -195 10 -16 36 -65 59 -107 23 -43 49 -91 59 -108 l17
-30 518 2 519 3 32 60 c18 33 58 106 89 161 31 56 57 107 57 112 0 6 4 12 8
14 4 1 27 39 51 83 87 161 104 190 111 200 4 6 25 44 47 85 50 92 110 200 123
220 5 8 22 40 37 70 15 30 31 57 34 60 4 3 21 32 38 65 17 33 44 83 59 110 15
28 45 82 67 120 21 39 49 87 62 107 13 21 23 40 23 43 0 3 24 47 53 98 28 51
59 106 67 122 8 17 17 32 20 35 5 5 17 26 64 113 64 118 146 266 198 356 26
46 48 90 48 97 0 8 3 14 8 14 4 0 18 21 32 47 14 27 49 91 78 143 30 52 70
124 89 160 20 36 64 116 99 177 35 62 64 117 64 122 0 5 7 14 15 21 8 7 15 21
15 30 0 10 4 20 8 22 9 3 37 54 134 238 103 194 150 284 200 380 27 52 53 98
57 102 3 4 6 -847 6 -1892 l0 -1900 912 0 912 0 0 2864 0 2864 -1204 0 -1205
-1 -13 -26 c-8 -14 -36 -66 -62 -116 -27 -49 -58 -108 -69 -130 -11 -22 -22
-42 -25 -45 -3 -3 -22 -36 -41 -75 -19 -38 -37 -72 -40 -75 -3 -3 -21 -36 -40
-75 -19 -38 -37 -72 -40 -75 -3 -3 -13 -21 -22 -40 -10 -19 -42 -80 -71 -135
-30 -55 -75 -140 -101 -190 -49 -92 -108 -201 -156 -290 -35 -64 -120 -224
-157 -295 -15 -30 -30 -57 -33 -60 -3 -3 -22 -38 -43 -77 -20 -40 -54 -106
-74 -145 -21 -40 -40 -75 -43 -78 -6 -5 -37 -64 -122 -230 -18 -36 -35 -67
-38 -70 -3 -3 -23 -41 -45 -85 -22 -43 -44 -84 -50 -90 -5 -6 -21 -36 -35 -66
-14 -30 -27 -56 -30 -59 -3 -3 -16 -25 -28 -50 -13 -25 -44 -83 -70 -130 -25
-47 -65 -123 -90 -170 -24 -47 -47 -89 -52 -95 -4 -5 -43 -79 -86 -163 -136
-263 -189 -366 -203 -392 -14 -24 -14 -24 -41 30 -14 30 -55 109 -90 175 -34
66 -88 167 -118 225 -56 107 -92 175 -142 265 -65 120 -115 213 -135 252 -12
23 -27 49 -34 57 -7 8 -14 22 -15 29 -1 8 -7 21 -12 28 -6 8 -31 52 -56 99
-25 47 -67 126 -94 175 -26 50 -58 108 -70 130 -12 22 -37 69 -56 105 -18 36
-36 67 -40 68 -5 2 -8 7 -8 11 0 5 -22 48 -48 97 -27 49 -70 130 -97 179 -26
50 -60 113 -75 140 -15 28 -42 77 -60 110 -17 33 -44 83 -59 110 -15 28 -54
100 -86 160 -32 61 -61 115 -65 120 -8 10 -50 89 -138 255 -60 114 -76 144
-82 150 -3 3 -17 30 -33 60 -15 30 -43 84 -63 120 -20 36 -61 112 -92 170 -31
58 -60 107 -64 108 -4 2 -8 12 -8 22 0 10 -5 22 -11 25 -5 4 -14 17 -19 30
l-9 23 -1255 0 -1256 0 0 -89z"/>
</g>
</svg>
