<?xml version="1.0" standalone="no"?>
<!DOCTYPE svg PUBLIC "-//W3C//DTD SVG 20010904//EN"
 "http://www.w3.org/TR/2001/REC-SVG-20010904/DTD/svg10.dtd">
<svg version="1.0" xmlns="http://www.w3.org/2000/svg"
 width="696.000000pt" height="696.000000pt" viewBox="0 0 696.000000 696.000000"
 preserveAspectRatio="xMidYMid meet">
<metadata>
Created by potrace 1.14, written by Peter Selinger 2001-2017
</metadata>
<g transform="translate(0.000000,696.000000) scale(0.100000,-0.100000)"
fill="#000000" stroke="none">
<path d="M27 6322 c-2 -4 -3 -1292 -3 -2862 l1 -2855 692 -3 693 -2 2 1942 3
1943 29 -85 c16 -47 33 -91 39 -97 5 -7 6 -13 2 -13 -4 0 0 -11 9 -25 9 -13
16 -31 16 -39 0 -9 6 -30 14 -48 8 -18 36 -91 61 -163 69 -191 93 -256 106
-290 7 -16 13 -32 14 -35 5 -20 19 -60 30 -85 8 -16 64 -158 125 -315 120
-305 125 -318 140 -352 5 -13 37 -93 70 -178 33 -85 65 -164 70 -175 4 -11 41
-103 80 -205 40 -102 81 -204 91 -227 10 -24 19 -49 19 -56 0 -7 5 -18 10 -23
6 -6 12 -20 15 -32 2 -12 10 -36 19 -54 29 -65 133 -338 134 -352 0 -5 4 -12
9 -15 4 -3 16 -27 26 -53 9 -27 25 -69 35 -95 9 -27 21 -51 25 -54 5 -3 8 -9
7 -13 -2 -7 13 -51 31 -91 9 -20 191 -484 251 -637 l30 -78 492 0 492 0 13 38
c7 20 19 51 26 67 12 27 26 62 30 75 1 3 6 16 12 30 6 14 115 286 242 605 127
319 236 589 241 600 5 11 32 79 60 150 28 72 55 139 59 150 9 20 23 55 26 65
1 3 9 23 18 44 10 22 20 50 23 63 4 13 10 26 15 29 5 3 9 12 9 20 0 8 9 33 19
57 11 23 32 74 47 112 14 39 32 84 39 100 34 78 356 891 385 970 17 50 38 104
46 122 8 17 14 33 14 36 0 3 5 18 11 34 11 26 45 118 102 278 14 39 31 84 38
100 7 17 13 33 14 38 2 4 4 9 5 12 1 3 3 9 4 14 0 5 4 13 9 17 4 4 7 17 7 28
0 13 3 17 8 9 4 -6 7 -878 7 -1937 l-1 -1926 743 0 c701 0 743 1 744 18 1 23
1 5661 0 5689 l-1 21 -1031 -1 -1032 -2 -44 -120 c-25 -66 -49 -129 -54 -140
-4 -11 -29 -76 -54 -145 -25 -69 -52 -141 -60 -160 -8 -19 -37 -98 -65 -175
-28 -77 -55 -149 -60 -160 -8 -18 -260 -690 -405 -1080 -29 -77 -59 -157 -68
-178 -9 -20 -17 -41 -18 -45 -2 -9 11 27 -155 -417 -80 -214 -162 -433 -180
-485 -19 -52 -37 -102 -41 -110 -3 -8 -7 -17 -8 -20 -1 -3 -5 -14 -9 -25 -14
-37 -19 -50 -22 -60 -1 -5 -14 -39 -27 -75 -13 -36 -44 -118 -67 -183 -24 -64
-46 -115 -48 -112 -3 3 -13 26 -23 52 -9 27 -36 100 -59 163 -23 63 -43 120
-44 125 -1 6 -4 15 -7 20 -4 6 -12 28 -19 50 -14 45 -135 369 -182 485 -16 41
-31 82 -33 90 -2 8 -38 105 -80 215 -76 199 -86 225 -105 268 -5 12 -23 60
-40 107 -17 47 -35 94 -40 105 -4 11 -23 58 -40 105 -18 47 -36 94 -41 105 -4
11 -22 58 -39 105 -17 47 -35 94 -40 105 -5 11 -31 79 -58 150 -121 319 -194
512 -202 530 -9 22 -43 111 -170 445 -138 364 -149 394 -168 441 l-10 26
-1021 1 c-561 1 -1022 -2 -1024 -6z"/>
</g>
</svg>
