<?xml version="1.0" standalone="no"?>
<!DOCTYPE svg PUBLIC "-//W3C//DTD SVG 20010904//EN"
 "http://www.w3.org/TR/2001/REC-SVG-20010904/DTD/svg10.dtd">
<svg version="1.0" xmlns="http://www.w3.org/2000/svg"
 width="844.000000pt" height="844.000000pt" viewBox="0 0 844.000000 844.000000"
 preserveAspectRatio="xMidYMid meet">
<metadata>
Created by potrace 1.14, written by Peter Selinger 2001-2017
</metadata>
<g transform="translate(0.000000,844.000000) scale(0.100000,-0.100000)"
fill="#000000" stroke="none">
<path d="M2085 8317 c-86 -41 -136 -117 -136 -210 0 -62 1 -70 25 -120 38 -78
121 -125 216 -123 130 4 226 95 234 223 11 177 -178 305 -339 230z"/>
<path d="M8 4247 c-2 -2135 -2 -3894 0 -3909 l3 -27 2775 0 2775 1 -3 45 -3
46 -2727 0 -2727 0 -3 185 c-2 101 0 186 3 188 4 2 3 20 -1 39 -4 19 -5 37 -1
39 3 2 4 93 1 201 -3 108 -2 199 1 201 4 2 3 20 -1 39 -4 19 -5 37 -1 39 3 2
4 93 1 201 -3 108 -2 199 1 201 4 2 3 20 -1 39 -4 19 -5 37 -1 39 3 2 4 93 1
201 -3 108 -2 199 1 201 4 2 3 20 -1 39 -4 19 -5 37 -1 39 3 2 4 93 1 201 -3
108 -2 199 1 201 4 2 3 20 -1 39 -4 19 -5 37 -1 39 3 2 4 93 1 201 -3 108 -2
199 1 201 4 2 3 20 -1 39 -4 19 -5 37 -1 39 3 2 4 93 1 201 -3 108 -2 199 1
201 4 2 3 20 -1 39 -4 19 -5 37 -1 39 3 2 4 93 1 201 -3 108 -2 199 1 201 4 2
3 20 -1 39 -4 19 -5 37 -1 39 3 2 4 93 1 201 -3 108 -2 199 1 201 4 2 3 20 -1
39 -4 19 -5 37 -1 39 3 2 4 93 1 201 -3 108 -2 199 1 201 4 2 3 20 -1 39 -4
19 -5 37 -1 39 3 2 4 93 1 201 -3 108 -2 199 1 201 4 2 3 20 -1 39 -4 19 -5
37 -1 39 3 2 4 93 1 201 -3 108 -2 199 1 201 4 2 3 20 -1 39 -4 19 -5 37 -1
39 3 2 4 93 1 201 -3 108 -2 199 1 201 4 2 3 20 -1 39 -4 19 -5 37 -1 39 3 2
4 93 1 201 -3 108 -2 199 1 201 4 2 3 20 -1 39 -4 19 -5 37 -1 39 3 2 4 93 1
201 -3 108 -2 199 1 201 4 2 3 19 -1 38 -4 19 -6 37 -3 39 6 7 5 426 -1 436
-3 5 0 13 7 19 7 6 281 9 750 8 788 -1 756 -3 751 44 -1 8 -2 23 -3 32 -1 15
-59 17 -796 17 l-795 0 -2 -3882z"/>
<path d="M2877 8104 c-2 -13 1 -33 7 -45 l11 -22 2722 0 2723 0 0 -3817 0
-3817 -717 0 c-395 -1 -734 -2 -753 -2 -35 -1 -36 -2 -34 -38 1 -21 3 -41 3
-45 1 -4 358 -6 794 -5 l792 2 3 3907 2 3907 -2774 0 -2774 -1 -5 -24z"/>
<path d="M1955 4084 c0 -1096 3 -1995 7 -1999 9 -10 66 -13 79 -4 6 3 26 3 45
-1 19 -5 37 -4 40 1 3 5 9 7 13 4 12 -7 139 -10 146 -3 3 3 22 2 41 -2 19 -5
37 -4 40 1 3 5 9 7 13 4 8 -4 43 -5 186 -6 l40 0 -1 1536 c0 844 3 1535 7
1535 4 0 11 -10 14 -22 6 -21 64 -172 88 -228 5 -14 11 -29 12 -35 4 -16 101
-255 128 -315 13 -30 40 -91 60 -135 34 -80 65 -148 95 -215 9 -19 17 -37 18
-40 0 -3 8 -22 17 -42 10 -21 24 -55 34 -75 9 -21 17 -40 18 -43 0 -3 10 -25
22 -50 11 -25 51 -115 88 -200 36 -85 75 -171 86 -191 10 -20 16 -39 12 -43
-3 -3 -1 -6 5 -6 7 0 12 -8 12 -18 0 -10 4 -22 8 -28 5 -5 26 -49 47 -99 21
-49 51 -119 67 -155 17 -36 41 -89 54 -118 13 -29 24 -54 24 -57 0 -2 13 -32
29 -67 16 -35 52 -117 81 -183 64 -145 85 -194 116 -263 13 -29 24 -54 24 -56
0 -2 12 -30 27 -62 15 -33 28 -61 29 -64 1 -6 39 -93 61 -140 9 -19 17 -37 18
-40 10 -40 37 -80 54 -81 41 -1 111 0 119 1 4 2 11 1 17 0 12 -2 127 -2 140 0
6 2 15 1 20 0 6 -1 42 -1 80 -1 39 1 78 2 88 2 16 0 23 12 67 114 4 11 21 47
36 80 16 33 28 62 29 65 0 3 13 32 28 64 15 33 30 70 33 83 4 13 10 23 15 23
5 0 9 6 9 14 0 12 26 72 83 196 12 25 22 47 22 50 2 5 23 53 63 140 11 25 20
47 20 50 -1 3 10 25 23 50 13 25 23 47 24 50 0 3 8 21 17 40 43 91 694 1564
719 1625 15 39 33 84 40 100 7 17 13 32 14 35 6 25 19 60 30 85 17 38 38 88
40 98 2 4 4 9 5 12 1 3 3 8 4 13 2 4 7 18 13 32 6 14 15 36 21 50 7 17 10
-468 10 -1518 0 -849 2 -1545 5 -1548 5 -5 177 -8 202 -3 6 1 14 0 20 -1 12
-2 127 -2 140 0 6 2 14 1 20 0 22 -4 133 -2 141 2 5 3 17 3 26 -1 10 -3 38 -5
62 -3 l44 4 -1 1996 -2 1997 -477 0 c-263 0 -478 -3 -478 -7 0 -4 -11 -31 -24
-60 -13 -29 -50 -116 -82 -193 -49 -122 -127 -308 -153 -370 -5 -11 -16 -38
-26 -60 -9 -22 -20 -49 -25 -60 -5 -11 -43 -103 -85 -204 -41 -100 -81 -197
-89 -215 -8 -17 -35 -80 -60 -141 -24 -60 -99 -240 -166 -400 -67 -159 -131
-315 -143 -345 -11 -30 -25 -58 -30 -61 -5 -3 -8 -9 -7 -13 1 -4 -4 -21 -11
-39 -6 -18 -13 -34 -14 -37 -1 -3 -9 -23 -19 -45 -9 -22 -21 -50 -26 -62 -6
-13 -14 -33 -20 -45 -42 -98 -150 -369 -216 -540 -43 -115 -82 -208 -86 -208
-4 0 -9 10 -13 23 -3 12 -17 49 -29 82 -62 158 -116 302 -116 308 0 4 -9 26
-19 50 -16 37 -30 71 -36 87 -1 3 -11 27 -23 53 -12 27 -22 50 -22 53 0 2 -11
27 -24 56 -34 75 -148 348 -150 358 -1 3 -4 10 -8 15 -3 6 -22 51 -42 100 -21
50 -46 109 -57 132 -10 24 -19 45 -19 48 0 2 -11 28 -24 57 -13 29 -52 121
-86 203 -34 83 -70 168 -80 190 -10 22 -48 112 -85 200 -37 88 -76 179 -86
202 -10 23 -19 44 -19 48 0 3 -9 24 -19 48 -27 58 -197 460 -303 712 l-33 80
-480 1 -481 0 1 -1992z"/>
<path d="M6189 571 c-131 -42 -202 -172 -163 -300 16 -54 63 -115 106 -137 39
-20 116 -43 122 -37 3 3 22 7 42 9 20 2 55 14 78 28 161 94 157 334 -7 418
-45 22 -136 32 -178 19z"/>
</g>
</svg>
