<svg width="211" height="207" viewBox="0 0 211 207" fill="none" xmlns="http://www.w3.org/2000/svg">
<path d="M1.36719 5.78125L1.36719 200.789" stroke="#7E41FF" stroke-width="2.25183"/>
<path d="M209.629 6.53125V200.789" stroke="#7E41FF" stroke-width="2.25183"/>
<path d="M156.363 194.504C153.047 194.504 150.363 197.188 150.363 200.504C150.363 203.816 153.047 206.504 156.363 206.504C159.676 206.504 162.363 203.816 162.363 200.504C162.363 197.188 159.676 194.504 156.363 194.504Z" fill="#7E41FF"/>
<path d="M0.246094 200.086H139.004" stroke="#7E41FF" stroke-width="2.25171"/>
<path d="M170.93 200.086H210.684" stroke="#7E41FF" stroke-width="2.24801"/>
<path d="M210.75 6.91016L71.9882 6.91016" stroke="#7E41FF" stroke-width="2.25171"/>
<path d="M54.6328 12.4961C57.9453 12.4961 60.6328 9.80859 60.6328 6.49609C60.6328 3.17969 57.9453 0.496094 54.6328 0.496094C51.3203 0.496094 48.6328 3.17969 48.6328 6.49609C48.6328 9.80859 51.3203 12.4961 54.6328 12.4961Z" fill="#7E41FF"/>
<path d="M40.0664 6.91016L1.0586 6.91016" stroke="#7E41FF" stroke-width="2.25884"/>
<path d="M161.2 157V57.1H137.35L109.9 122.95L105.25 135.1L100.6 122.8L72.85 57.1H48.85V157H65.05V79.45L70 92.2L98.5 157H110.95L139.75 92.2L144.7 79.45V157H161.2Z" fill="#7E41FF"/>
</svg>
