<svg width="0" height="0" class="hidden">
  <symbol xmlns="http://www.w3.org/2000/svg" viewBox="0 0 31 21" id="code">
    <path d="M10.5998 0.626984C10.4524 0.50419 10.2823 0.411673 10.0991 0.354733C9.91593 0.297793 9.72332 0.277549 9.53232 0.295159C9.34131 0.31277 9.15565 0.36789 8.98598 0.457361C8.81631 0.546833 8.66595 0.668899 8.54352 0.816568L1.25186 9.56657C1.03736 9.82751 0.920105 10.1548 0.920105 10.4926C0.920105 10.8304 1.03736 11.1577 1.25186 11.4187L8.29561 20.1687C8.43286 20.3378 8.60629 20.4741 8.80313 20.5675C8.99998 20.6609 9.21524 20.709 9.43311 20.7082C9.70908 20.7092 9.97965 20.6318 10.2134 20.4851C10.4471 20.3384 10.6344 20.1283 10.7536 19.8794C10.8727 19.6305 10.9187 19.3528 10.8863 19.0788C10.854 18.8047 10.7445 18.5455 10.5706 18.3312L4.25602 10.4999L10.7894 2.68323C10.9122 2.53587 11.0047 2.36573 11.0616 2.18256C11.1185 1.99939 11.1388 1.80678 11.1212 1.61578C11.1036 1.42477 11.0485 1.23911 10.959 1.06944C10.8695 0.899765 10.7474 0.74941 10.5998 0.626984ZM29.7623 9.58115L22.7914 0.831151C22.6711 0.681341 22.5223 0.556793 22.3537 0.464664C22.1851 0.372536 21.9999 0.314644 21.8088 0.294316C21.6177 0.273988 21.4245 0.291625 21.2402 0.346213C21.056 0.4008 20.8844 0.491263 20.7352 0.612401C20.5854 0.732746 20.4608 0.881513 20.3687 1.05015C20.2766 1.21879 20.2187 1.40397 20.1984 1.59505C20.178 1.78613 20.1957 1.97935 20.2503 2.1636C20.3048 2.34784 20.3953 2.51948 20.5164 2.66865L26.7435 10.4999L20.2102 18.3312C20.0874 18.4785 19.9949 18.6487 19.9379 18.8318C19.881 19.015 19.8608 19.2076 19.8784 19.3986C19.896 19.5896 19.9511 19.7753 20.0406 19.9449C20.13 20.1146 20.2521 20.265 20.3998 20.3874C20.6641 20.5996 20.9942 20.713 21.3331 20.7082C21.5474 20.7086 21.759 20.6617 21.9531 20.571C22.1472 20.4802 22.3189 20.3479 22.456 20.1832L29.7477 11.4332C29.9642 11.174 30.0841 10.8476 30.0867 10.5098C30.0894 10.172 29.9747 9.84378 29.7623 9.58115Z"></path>
  </symbol>
  <symbol fill="none" xmlns="http://www.w3.org/2000/svg" viewBox="0 0 18 19" id="dark">
    <path d="M11.0114 12.117C12.8917 13.069 14.948 13.2994 16.865 12.9117C17.1218 12.8597 17.325 13.1244 17.2097 13.3597C17.1929 13.394 17.1759 13.4283 17.1586 13.4624C14.9161 17.8917 9.51673 19.6722 5.08187 17.4529C0.657207 15.2388 -1.15981 9.83273 1.03255 5.39727C2.11727 3.20264 3.97213 1.64723 6.1062 0.891984C6.35152 0.805156 6.59012 1.03862 6.50934 1.28597C5.15229 5.44229 6.98969 10.0809 11.0114 12.117" fill="#385E78"></path>
  </symbol>
  <symbol xmlns="http://www.w3.org/2000/svg" viewBox="0 0 32 32" id="github">
    <path d="M15.8333 0C7.08542 0 0 7.08542 0 15.8333C0 22.8396 4.53229 28.7573 10.826 30.8552C11.6177 30.9938 11.9146 30.5188 11.9146 30.1031C11.9146 29.7271 11.8948 28.4802 11.8948 27.1542C7.91667 27.8865 6.8875 26.1844 6.57084 25.2938C6.39271 24.8386 5.62084 23.4333 4.94792 23.0573C4.39375 22.7604 3.60208 22.0281 4.92813 22.0083C6.175 21.9886 7.06563 23.1563 7.3625 23.6313C8.7875 26.0261 11.0635 25.3531 11.974 24.9375C12.1125 23.9083 12.5281 23.2156 12.9833 22.8198C9.46042 22.424 5.77917 21.0583 5.77917 15.0021C5.77917 13.2802 6.39271 11.8552 7.40209 10.7469C7.24375 10.351 6.68959 8.72813 7.56042 6.55104C7.56042 6.55104 8.88646 6.13542 11.9146 8.17396C13.1813 7.81771 14.5271 7.63959 15.8729 7.63959C17.2188 7.63959 18.5646 7.81771 19.8313 8.17396C22.8594 6.11563 24.1854 6.55104 24.1854 6.55104C25.0563 8.72813 24.5021 10.351 24.3438 10.7469C25.3531 11.8552 25.9667 13.2604 25.9667 15.0021C25.9667 21.0781 22.2656 22.424 18.7427 22.8198C19.3167 23.3146 19.8115 24.2646 19.8115 25.749C19.8115 27.8667 19.7917 29.5688 19.7917 30.1031C19.7917 30.5188 20.0885 31.0136 20.8802 30.8552C24.0236 29.7944 26.7551 27.7743 28.6901 25.0795C30.6251 22.3847 31.6661 19.1509 31.6667 15.8333C31.6667 7.08542 24.5813 0 15.8333 0Z"></path>
  </symbol>
  <symbol fill="none" xmlns="http://www.w3.org/2000/svg" viewBox="0 0 56 62" id="graphql">
    <path fill-rule="evenodd" clip-rule="evenodd" d="M33.5015 7.33845L46.1209 14.6247C46.4852 14.2392 46.9033 13.9083 47.3622 13.6424C49.9793 12.1377 53.3175 13.0311 54.8377 15.6484C56.3423 18.2656 55.449 21.6036 52.8317 23.1238C52.3762 23.3861 51.8853 23.5816 51.3742 23.7042V38.2819C51.8798 38.4047 52.3653 38.5989 52.8161 38.8584C55.449 40.3786 56.3423 43.7169 54.8221 46.3341C53.3175 48.9512 49.9637 49.8445 47.3464 48.3401C46.8394 48.0492 46.3826 47.6784 45.9937 47.242L33.4512 54.4834C33.6349 55.0396 33.7282 55.6216 33.7275 56.2073C33.7275 59.2163 31.2828 61.677 28.258 61.677C25.2332 61.677 22.7886 59.2319 22.7886 56.2073C22.7886 55.6697 22.8658 55.1504 23.0098 54.6598L10.3939 47.3758C10.0335 47.7536 9.62133 48.0783 9.16961 48.3401C6.53676 49.8445 3.19854 48.9512 1.69393 46.3341C0.18953 43.7169 1.08287 40.3786 3.69993 38.8584C4.15078 38.5988 4.63627 38.4046 5.14181 38.2817V23.7042C4.63069 23.5816 4.13985 23.3861 3.68436 23.1238C1.06708 21.6194 0.173742 18.2656 1.67835 15.6484C3.18296 13.0311 6.53654 12.1377 9.15382 13.6424C9.61022 13.9069 10.0262 14.2356 10.3892 14.6185L23.0122 7.33034C22.8634 6.82529 22.788 6.30146 22.7886 5.77495C22.7886 2.75058 25.2332 0.305481 28.258 0.305481C31.2828 0.305481 33.7275 2.75037 33.7275 5.77495C33.7275 6.31859 33.6485 6.84324 33.5015 7.33845ZM32.1868 9.58341L44.8363 16.8867C44.6348 17.5908 44.5771 18.3282 44.6664 19.0551C44.7557 19.782 44.9903 20.4835 45.3562 21.1178C46.1262 22.4573 47.3806 23.3453 48.7727 23.6914V38.2873C48.7017 38.3046 48.6311 38.3236 48.5609 38.3436L32.0398 9.72956C32.0897 9.68177 32.1388 9.63312 32.1868 9.58362V9.58341ZM24.4796 9.73276L7.9588 38.3464C7.88736 38.3257 7.81552 38.3065 7.7433 38.2888V23.6914C9.13547 23.3453 10.3898 22.4573 11.1598 21.1178C11.5265 20.4822 11.7613 19.7793 11.8502 19.0509C11.9392 18.3226 11.8805 17.5838 11.6777 16.8786L24.3235 9.57744C24.3745 9.63014 24.4265 9.68198 24.4796 9.73255V9.73276ZM29.7863 11.0289L46.3033 39.6361C45.925 39.9972 45.6007 40.4109 45.3404 40.8645C45.0808 41.3153 44.8867 41.8008 44.7639 42.3063H11.7525C11.6296 41.8008 11.4353 41.3153 11.1756 40.8645C10.9145 40.414 10.5908 40.0028 10.2142 39.6432L26.7344 11.0302C27.2297 11.1728 27.7426 11.2449 28.258 11.2444C28.7886 11.2444 29.3013 11.1693 29.7863 11.0289ZM32.3029 52.5226L44.8702 45.2667C44.8325 45.1482 44.7988 45.0286 44.7693 44.9078H11.7455C11.728 44.9789 11.709 45.0493 11.6887 45.1195L24.3175 52.411C24.8275 51.8807 25.4395 51.4591 26.1167 51.1716C26.7939 50.884 27.5223 50.7365 28.258 50.7379C29.0195 50.7365 29.7728 50.8947 30.4694 51.202C31.166 51.5094 31.7906 51.9593 32.3029 52.5226Z" fill="#E535AB"></path>
  </symbol>
  <symbol fill="none" xmlns="http://www.w3.org/2000/svg" viewBox="0 0 52 52" id="javascript">
    <path d="M0.78731 0.998138H51.1089V51.3198H0.78731V0.998138Z" fill="#F7DF1E"></path>
    <path d="M14.0192 43.0501L17.8699 40.7196C18.613 42.0368 19.2888 43.1514 20.9099 43.1514C22.4637 43.1514 23.4436 42.5436 23.4436 40.1793V24.1003H28.1725V40.2461C28.1725 45.144 25.3014 47.3735 21.1125 47.3735C17.3296 47.3735 15.1337 45.4143 14.019 43.0497" fill="black"></path>
    <path d="M30.7407 42.5433L34.5911 40.314C35.6048 41.9693 36.9222 43.1853 39.2527 43.1853C41.2123 43.1853 42.4617 42.2056 42.4617 40.8544C42.4617 39.2331 41.1781 38.6587 39.0163 37.7132L37.8343 37.2061C34.4224 35.754 32.1593 33.9298 32.1593 30.0791C32.1593 26.5322 34.8616 23.8297 39.0841 23.8297C42.0904 23.8297 44.2523 24.8771 45.8059 27.6131L42.1238 29.9778C41.313 28.5254 40.4351 27.9512 39.0839 27.9512C37.6989 27.9512 36.8206 28.8295 36.8206 29.9778C36.8206 31.3965 37.6989 31.971 39.7255 32.8493L40.9076 33.3559C44.9275 35.0788 47.1906 36.8351 47.1906 40.787C47.1906 45.0435 43.8465 47.374 39.354 47.374C34.9628 47.374 32.1253 45.2797 30.7405 42.5435" fill="black"></path>
  </symbol>
  <symbol fill="none" xmlns="http://www.w3.org/2000/svg" viewBox="0 0 22 22" id="light">
    <path d="M11 6C9.67392 6 8.40215 6.52678 7.46447 7.46447C6.52678 8.40215 6 9.67392 6 11C6 12.3261 6.52678 13.5979 7.46447 14.5355C8.40215 15.4732 9.67392 16 11 16C12.3261 16 13.5979 15.4732 14.5355 14.5355C15.4732 13.5979 16 12.3261 16 11C16 9.67392 15.4732 8.40215 14.5355 7.46447C13.5979 6.52678 12.3261 6 11 6Z" fill="#E5E3E3"></path>
    <path fill-rule="evenodd" clip-rule="evenodd" d="M11 0C11.2652 0 11.5196 0.105357 11.7071 0.292893C11.8946 0.48043 12 0.734784 12 1V2C12 2.26522 11.8946 2.51957 11.7071 2.70711C11.5196 2.89464 11.2652 3 11 3C10.7348 3 10.4804 2.89464 10.2929 2.70711C10.1054 2.51957 10 2.26522 10 2V1C10 0.734784 10.1054 0.48043 10.2929 0.292893C10.4804 0.105357 10.7348 0 11 0ZM2.293 2.293C2.48053 2.10553 2.73484 2.00021 3 2.00021C3.26516 2.00021 3.51947 2.10553 3.707 2.293L5.207 3.793C5.38916 3.9816 5.48995 4.2342 5.48767 4.4964C5.4854 4.7586 5.38023 5.00941 5.19482 5.19482C5.00941 5.38023 4.7586 5.4854 4.4964 5.48767C4.2342 5.48995 3.9816 5.38916 3.793 5.207L2.293 3.707C2.10553 3.51947 2.00021 3.26516 2.00021 3C2.00021 2.73484 2.10553 2.48053 2.293 2.293ZM19.707 2.293C19.8945 2.48053 19.9998 2.73484 19.9998 3C19.9998 3.26516 19.8945 3.51947 19.707 3.707L18.207 5.207C18.1148 5.30251 18.0044 5.37869 17.8824 5.4311C17.7604 5.48351 17.6292 5.5111 17.4964 5.51225C17.3636 5.5134 17.2319 5.4881 17.109 5.43782C16.9862 5.38754 16.8745 5.31329 16.7806 5.2194C16.6867 5.1255 16.6125 5.01385 16.5622 4.89095C16.5119 4.76806 16.4866 4.63638 16.4877 4.5036C16.4889 4.37082 16.5165 4.2396 16.5689 4.1176C16.6213 3.99559 16.6975 3.88525 16.793 3.793L18.293 2.293C18.4805 2.10553 18.7348 2.00021 19 2.00021C19.2652 2.00021 19.5195 2.10553 19.707 2.293ZM0 11C0 10.7348 0.105357 10.4804 0.292893 10.2929C0.48043 10.1054 0.734784 10 1 10H2C2.26522 10 2.51957 10.1054 2.70711 10.2929C2.89464 10.4804 3 10.7348 3 11C3 11.2652 2.89464 11.5196 2.70711 11.7071C2.51957 11.8946 2.26522 12 2 12H1C0.734784 12 0.48043 11.8946 0.292893 11.7071C0.105357 11.5196 0 11.2652 0 11ZM19 11C19 10.7348 19.1054 10.4804 19.2929 10.2929C19.4804 10.1054 19.7348 10 20 10H21C21.2652 10 21.5196 10.1054 21.7071 10.2929C21.8946 10.4804 22 10.7348 22 11C22 11.2652 21.8946 11.5196 21.7071 11.7071C21.5196 11.8946 21.2652 12 21 12H20C19.7348 12 19.4804 11.8946 19.2929 11.7071C19.1054 11.5196 19 11.2652 19 11ZM5.207 16.793C5.39447 16.9805 5.49979 17.2348 5.49979 17.5C5.49979 17.7652 5.39447 18.0195 5.207 18.207L3.707 19.707C3.5184 19.8892 3.2658 19.99 3.0036 19.9877C2.7414 19.9854 2.49059 19.8802 2.30518 19.6948C2.11977 19.5094 2.0146 19.2586 2.01233 18.9964C2.01005 18.7342 2.11084 18.4816 2.293 18.293L3.793 16.793C3.98053 16.6055 4.23484 16.5002 4.5 16.5002C4.76516 16.5002 5.01947 16.6055 5.207 16.793ZM16.793 16.793C16.9805 16.6055 17.2348 16.5002 17.5 16.5002C17.7652 16.5002 18.0195 16.6055 18.207 16.793L19.707 18.293C19.8892 18.4816 19.99 18.7342 19.9877 18.9964C19.9854 19.2586 19.8802 19.5094 19.6948 19.6948C19.5094 19.8802 19.2586 19.9854 18.9964 19.9877C18.7342 19.99 18.4816 19.8892 18.293 19.707L16.793 18.207C16.6055 18.0195 16.5002 17.7652 16.5002 17.5C16.5002 17.2348 16.6055 16.9805 16.793 16.793ZM11 19C11.2652 19 11.5196 19.1054 11.7071 19.2929C11.8946 19.4804 12 19.7348 12 20V21C12 21.2652 11.8946 21.5196 11.7071 21.7071C11.5196 21.8946 11.2652 22 11 22C10.7348 22 10.4804 21.8946 10.2929 21.7071C10.1054 21.5196 10 21.2652 10 21V20C10 19.7348 10.1054 19.4804 10.2929 19.2929C10.4804 19.1054 10.7348 19 11 19Z" fill="#E5E3E3"></path>
  </symbol>
  <symbol xmlns="http://www.w3.org/2000/svg" viewBox="0 0 28 28" id="linkedin">
    <path fill-rule="evenodd" clip-rule="evenodd" d="M23.8793 23.7463H19.7489V17.2788C19.7489 15.7367 19.7207 13.7529 17.6011 13.7529C15.4506 13.7529 15.1205 15.4328 15.1205 17.1674V23.7463H10.9909V10.4472H14.955V12.2643H15.0104C15.5623 11.2189 16.9105 10.1167 18.9213 10.1167C23.1066 10.1167 23.8793 12.8712 23.8793 16.4517V23.7463ZM6.33286 8.62955C5.00806 8.62955 3.93599 7.5557 3.93599 6.23261C3.93599 4.91067 5.00806 3.83683 6.33286 3.83683C7.65437 3.83683 8.72818 4.91067 8.72818 6.23261C8.72818 7.5557 7.65437 8.62955 6.33286 8.62955ZM4.26471 23.7464H8.39818V10.4474H4.26471V23.7464ZM25.9372 0H2.18992C1.05515 0 0.133057 0.89948 0.133057 2.00796V25.8562C0.133057 26.966 1.05515 27.8669 2.18992 27.8669H25.9372C27.074 27.8669 27.9999 26.966 27.9999 25.8562V2.00796C27.9999 0.89948 27.074 0 25.9372 0Z"></path>
  </symbol>
  <symbol xmlns="http://www.w3.org/2000/svg" viewBox="0 0 26 26" id="link">
    <path d="M20.1365 14.2403C19.6608 14.7164 19.6608 15.4884 20.1369 15.9637C20.3749 16.2018 20.6867 16.3208 20.9986 16.3208C21.3104 16.3208 21.6226 16.2018 21.8606 15.9637L23.1397 14.6839C24.7211 13.1025 25.5919 11.0022 25.5919 8.77023C25.5919 6.53824 24.7211 4.43796 23.1397 2.8566C19.8794 -0.40451 14.5735 -0.40451 11.3124 2.8566L10.033 4.13645C9.55729 4.61252 9.55729 5.38456 10.0334 5.85984C10.5094 6.33592 11.2811 6.33592 11.7572 5.85984L13.0362 4.57999C15.3464 2.27024 19.1054 2.27024 21.4163 4.57999C22.5371 5.70114 23.1544 7.18888 23.1544 8.77024C23.1544 10.3516 22.5371 11.8393 21.4159 12.9605L20.1365 14.2403ZM2.85298 23.1437C4.48354 24.7743 6.62508 25.5892 8.76662 25.5892C10.9082 25.5892 13.0501 24.7735 14.6807 23.1437L15.9601 21.8639C16.4358 21.3878 16.4358 20.6158 15.9597 20.1405C15.4836 19.6644 14.712 19.6644 14.2359 20.1405L12.9569 21.4203C10.6471 23.7301 6.88771 23.7301 4.57638 21.4203C2.26623 19.1098 2.26623 15.3504 4.57638 13.0398L5.85623 11.76C6.3323 11.2839 6.3323 10.5127 5.85623 10.0366C5.38015 9.56053 4.60891 9.56052 4.13284 10.0366L2.85299 11.3165C-0.407335 14.5775 -0.407335 19.8826 2.85298 23.1437Z"></path>
    <path d="M18.2267 7.76978C17.7506 7.2937 16.9785 7.2937 16.5033 7.76978L7.76651 16.5073C7.29044 16.9834 7.29044 17.7546 7.76651 18.2307C8.00455 18.4688 8.31638 18.5878 8.62821 18.5878C8.94004 18.5878 9.25227 18.4688 9.48991 18.2307L18.2267 9.49316C18.7027 9.01709 18.7027 8.24585 18.2267 7.76978Z"></path>
  </symbol>
  <symbol fill="none" xmlns="http://www.w3.org/2000/svg" viewBox="0 0 59 53" id="react">
    <path d="M29.472 31.4659C32.3627 31.4659 34.706 29.1226 34.706 26.2319C34.706 23.3413 32.3627 20.9979 29.472 20.9979C26.5814 20.9979 24.238 23.3413 24.238 26.2319C24.238 29.1226 26.5814 31.4659 29.472 31.4659Z" fill="#007ACC"></path>
    <path d="M29.472 38.2325C23.181 38.3846 16.9058 37.5366 10.8808 35.7201C8.09762 34.8379 5.50179 33.448 3.22451 31.6209C2.35552 30.9967 1.63185 30.1919 1.10315 29.2617C0.574456 28.3315 0.25325 27.2979 0.161572 26.2319C0.161572 22.7712 3.96355 19.3796 10.3323 17.1604C16.5183 15.1939 22.9817 14.2409 29.472 14.3382C35.8757 14.2487 42.2525 15.1845 48.3605 17.1101C51.0409 17.9646 53.5487 19.2873 55.7676 21.0168C56.6218 21.6119 57.3346 22.3875 57.8556 23.2887C58.3766 24.19 58.693 25.1948 58.7824 26.2319C58.7824 29.8287 54.5324 33.4737 47.6863 35.739C41.778 37.4963 35.6352 38.3372 29.472 38.2325ZM29.472 16.8421C23.2626 16.7591 17.0796 17.6651 11.1551 19.5261C5.29299 21.5716 2.66552 24.3686 2.66552 26.2256C2.66552 28.1685 5.48979 31.2231 11.691 33.3439C17.4549 35.0729 23.4563 35.8778 29.472 35.7285C35.3684 35.834 41.2462 35.0361 46.9012 33.3627C53.339 31.2294 56.2701 28.1706 56.2701 26.2319C56.1645 25.5666 55.922 24.9305 55.558 24.3636C55.1941 23.7968 54.7165 23.3116 54.1555 22.9387C52.1703 21.4044 49.93 20.2322 47.5377 19.4759C41.6945 17.6414 35.5957 16.7523 29.472 16.8421Z" fill="#007ACC"></path>
    <path d="M17.5803 52.3371C16.6037 52.3595 15.6385 52.1225 14.7833 51.6504C11.7852 49.9211 10.7468 44.9341 12.0051 38.3078C13.3924 31.9665 15.7962 25.8913 19.1233 20.3175C22.2443 14.7257 26.2398 9.66928 30.9584 5.3399C33.0377 3.44457 35.4364 1.93265 38.0432 0.874243C38.986 0.432366 40.0146 0.203308 41.0559 0.203308C42.0972 0.203308 43.1257 0.432366 44.0686 0.874243C47.1859 2.67055 48.2181 8.17254 46.763 15.2343C45.3329 21.2315 42.9915 26.974 39.8206 32.2615C36.8095 37.7873 32.9398 42.7997 28.3561 47.1114C26.2013 49.0811 23.7006 50.6349 20.9803 51.6943C19.8913 52.0985 18.7418 52.3158 17.5803 52.3371ZM21.2923 21.5611C18.1186 26.8984 15.8147 32.7068 14.4671 38.7684C13.3094 44.8713 14.4211 48.5414 16.0373 49.4751C17.7122 50.4445 21.778 49.5254 26.7147 45.2125C31.0904 41.0818 34.7839 36.2838 37.658 30.997C40.6956 25.942 42.9416 20.4518 44.3177 14.7171C45.6869 8.06995 44.504 3.99999 42.825 3.03275C42.1957 2.79162 41.5232 2.68368 40.85 2.71575C40.1768 2.74782 39.5176 2.91921 38.9141 3.21908C36.5937 4.17658 34.4605 5.53592 32.6124 7.2346C28.1042 11.3816 24.2876 16.2223 21.3069 21.5737L21.2923 21.5611Z" fill="#007ACC"></path>
    <path d="M41.3574 52.3643C38.5205 52.3643 34.9175 50.6476 31.1657 47.4214C26.3645 43.0526 22.3014 37.9361 19.1338 32.27C15.8484 26.7729 13.4636 20.7856 12.07 14.5351C11.4656 11.7851 11.3536 8.94973 11.7392 6.16065C11.8283 5.12601 12.1434 4.12352 12.6621 3.22388C13.1809 2.32424 13.8906 1.54935 14.7414 0.953863C17.8546 -0.848728 23.1368 1.00411 28.5278 5.79008C33.0093 10.0237 36.8151 14.9197 39.8123 20.3071C43.0957 25.6758 45.5054 31.532 46.9515 37.6568C47.5819 40.5077 47.6791 43.4506 47.2383 46.3369C47.1334 47.4013 46.7996 48.4304 46.2597 49.3537C45.7198 50.277 44.9867 51.0726 44.1105 51.686C43.2692 52.1523 42.319 52.3864 41.3574 52.3643ZM21.3007 31.0096C24.3394 36.4246 28.2206 41.3214 32.7987 45.5162C37.5072 49.5673 41.2422 50.4382 42.848 49.494C44.5229 48.5205 45.7581 44.5468 44.4852 38.1174C43.0906 32.2698 40.7793 26.6798 37.637 21.5549C34.7768 16.3986 31.1442 11.7105 26.8655 7.65339C21.7906 3.14796 17.6746 2.14094 15.9976 3.11237C15.4749 3.53712 15.046 4.06563 14.7379 4.66453C14.4298 5.26344 14.2492 5.91972 14.2075 6.59193C13.8747 9.07931 13.9831 11.6059 14.5279 14.0556C15.8684 20.0331 18.1555 25.7581 21.3028 31.0138L21.3007 31.0096Z" fill="#007ACC"></path>
  </symbol>
  <symbol fill="none" xmlns="http://www.w3.org/2000/svg" viewBox="0 0 18 20" id="top">
    <path d="M9.0188 18.3207V1.71692" stroke="#FAF8FD" stroke-width="2.07547" stroke-linecap="round" stroke-linejoin="round"></path>
    <path d="M1.75464 8.98107L9.01879 1.71692L16.2829 8.98107" stroke="#FAF8FD" stroke-width="2.07547" stroke-linecap="round" stroke-linejoin="round"></path>
  </symbol>
  <symbol fill="none" xmlns="http://www.w3.org/2000/svg" viewBox="0 0 55 55" id="typescript">
    <path d="M52.0901 0.160583H2.35964C0.939611 0.160583 -0.211548 1.31174 -0.211548 2.73177V52.4623C-0.211548 53.8823 0.939611 55.0334 2.35964 55.0334H52.0901C53.5101 55.0334 54.6613 53.8823 54.6613 52.4623V2.73177C54.6613 1.31174 53.5101 0.160583 52.0901 0.160583Z" fill="#3178C6"></path>
    <path fill-rule="evenodd" clip-rule="evenodd" d="M31.6245 42.8027V48.8152C32.7169 49.3544 33.8812 49.7339 35.0815 49.942C36.4686 50.1981 37.8766 50.3241 39.2871 50.3183C40.6618 50.3248 42.0334 50.1862 43.3791 49.9048C44.5872 49.6607 45.7399 49.1956 46.7792 48.533C47.7441 47.9101 48.5393 47.0577 49.0937 46.0519C50.0865 43.9694 50.2175 41.5792 49.4582 39.4006C49.1378 38.5859 48.6603 37.8421 48.053 37.2115C47.4012 36.541 46.6607 35.9628 45.8523 35.4928C44.9215 34.9477 43.9543 34.4671 42.9577 34.0544C42.1738 33.7291 41.4683 33.4129 40.8412 33.1059C40.2842 32.8392 39.7511 32.5251 39.2479 32.1671C38.8538 31.8908 38.5115 31.5472 38.2367 31.152C37.9993 30.7932 37.8757 30.3711 37.882 29.9409C37.8767 29.5449 37.9871 29.1561 38.1995 28.8219C38.4301 28.4721 38.7378 28.1798 39.099 27.9674C39.5404 27.7075 40.0208 27.5202 40.5217 27.4128C41.1367 27.2762 41.7653 27.2104 42.3953 27.2168C42.9251 27.2186 43.4541 27.2566 43.9787 27.3305C44.5453 27.4071 45.1058 27.523 45.6563 27.6774C46.2162 27.8326 46.7638 28.0291 47.2946 28.2653C47.8097 28.4949 48.3024 28.7718 48.7664 29.0923V23.4815C47.8005 23.1161 46.7987 22.8534 45.7778 22.6977C44.5449 22.5183 43.3001 22.4337 42.0543 22.4448C40.6925 22.4375 39.3346 22.5921 38.0094 22.9054C36.8115 23.1791 35.6724 23.6657 34.6464 24.3419C33.6934 24.9768 32.9064 25.8309 32.3516 26.8327C31.7636 27.9452 31.4727 29.1906 31.5069 30.4484C31.4635 32.1118 32.0114 33.7367 33.0532 35.0342C34.3313 36.4729 35.943 37.5758 37.7467 38.2463C38.5698 38.586 39.3374 38.9185 40.0495 39.2438C40.6919 39.5296 41.3094 39.8685 41.8955 40.257C42.3683 40.5645 42.7835 40.9525 43.1223 41.4034C43.4202 41.8124 43.5783 42.3065 43.5731 42.8125C43.5758 43.1916 43.4784 43.5648 43.2909 43.8943C43.0825 44.2483 42.7896 44.5453 42.4384 44.7585C41.9989 45.0264 41.5182 45.2198 41.0156 45.3307C40.3609 45.4771 39.6913 45.5462 39.0206 45.5365C37.7042 45.5341 36.3984 45.302 35.1618 44.8506C33.87 44.3844 32.672 43.6909 31.6245 42.8027V42.8027ZM21.524 27.8341H29.363V22.8819H7.50592V27.8341H15.3096V49.8891H21.524V27.8341Z" fill="white"></path>
  </symbol>
</svg>